<svg viewBox="0 0 100 100" xmlns="http://www.w3.org/2000/svg"><path d="m55.21 70.24a41.64 41.64 0 0 0 -18.64-7.66c-10.81-2.94-29.58-4.65-27 9.7 2.43 13.32 21.92 18.33 33.13 19.26 5.88.49 13.15-.34 16.92-5.46 4.25-5.77.57-12.08-4.41-15.84z" fill="#f8d038"/><path d="m76 14a11 11 0 0 0 -7.3-.2c-1.72.61-3.71 1.52-4 3.32-.34 2.1 1.9 3.69 3.93 4.3 3.2 1 6.9.86 9.62-1.08a3 3 0 0 0 1.34-1.72 2.44 2.44 0 0 0 0-1.17 5.86 5.86 0 0 0 -4.42-4c-2-.51-4.05.27-6.12.51" fill="#f2a1c3"/><path d="m86 24c-4 0-5.37.37-8 3.25a2.63 2.63 0 0 0 -.79 1.47c-.14 1.37 1.44 2.2 2.76 2.6 2.28.69 4.78 1.25 7 .36s3.69-3.83 2.29-5.75a5 5 0 0 0 -3.26-1.93" fill="#df6148"/><g fill="#172c42"><path d="m82.59 49.52c-.22-.34.4-.75-.35-1.34.35-.82-.28-.9.28-1.46-1.17.08-.44-.06-.45-.61.3.06.87.77.52.06-.18-.32-1-.29-.31-.43.17-.91-1.17-.17 0-1.5-.07-.55-1.16-.31-.2-1.3-.3 0-.79.17-.56-.33 1.55-.52-1.13 0 .23-.63.88-.3-1.11-.75-.77-1.53-.19-1.14.14-1.91-.14-3.07-.38-.06.09-.37-.58-.72.65-.48-.84-.71-.64-1.41.25-1-.54-.82-.22-1.58-.22-.43-1.38-1-1.42-1.23.61-.85-.53-.34-.39-.9-.35-.61-.19-.77-.86-.51.06-.93-1.26-1-1-1.71 0-.39-.66.14-.68-.55-.6-.19-.62-.87-1.51-1.48-.08-.61-.63-.48-.91-.91-.28-.23-.12-.8-.68-.36-.37 0-.73-1.15-1.23-1.31-.52.51-.77-1.19-1.14-.34-.16-.7-.41-1.23-1-.7-.3-.36.21-1.42-.23-.78-.44 1.31-.3-.41-.85-.62-.69 1 0-.66-.77-.44-.81.78-.38-.56-.77-.31-1.13.6-1.87-.8-2.82-.25-.31-.64-1.07.14-.83-.58-.66-.21-.93.21-1.29-.4-.65.34-.27-.24-.64-.41-.39.7-.47.13-.93-.05-.5-.62-1.7.2-2.17 0-.64-.91-1.38 0-2.27-1.06-.4 1-.89-.35-1.14 0-.1.54-.31-.6-.4-.23-.58 0-.87.63-1.23.08-.43.33-.64-.07-.9-.06 0 1.12-.82.23-.23-.38-.57-.09-.71 1.22-.76.37-1-.1-.19 1.06-1.69-.37-.2.74-.55.81-.52-.05-.43.29-1.32-.17-1.45.3.44 1-.92-.26-.13-.62-.44-.5-.52-.47.25-.25-.74-.82 1.07.14-.27-1.27 1 .43 1.33.78.19-.37.14-.9.77 1.31 1.13.85-1.29-2 1.09 1-.54-1.2 1.52 1.57.26.28.71.31-.42-1.13.87.91.17-1.23 0-.58-.48-.36-.86-1.59-1.27-.93.09.62-.39.62-.12 0-1.59-2.27-.48-.21-.53-.24-1-1.21-.55-.11-.67-.84-.88 0-.54.5s-.37.16-.57-.05c0 .41.52 1-.08.9-1.22-.25-2.58 1-.32 2.34-.93-.88-2.66-2-2-.15a1.12 1.12 0 0 0 -.5 1.21c-.57.77-.32-1.5-.73-.81.44.44-.31.31-.54.24 0-.31.4-.94-.19-.88.14 1.45-.7-.78-1.3-.76-.94-.13-.8-1.38-1.51-.88-.35-.34.63-.76-.54-.84-.48-.4-.77-.45-1 .31-.4-1.49-.16-.14-1.25-.94-.55-.06-.37 0-.74.76-.66-.14-.06-1.24-.47-1.22-.46 1.82-1.05 1.44-.22-.21-1-.17-.63 1.55-1.2 0-.2.12.14 1.75-.2 1.07-.24-2.71-.32 1-1.44-.37-1.31 1.22-.75 2.06.05 3.09s0-.75.53-.64c0 1 .66 2 .32.42.42.51.3 1.42.45.35.34 1.91.95-1.54 1.12.36.9-1.36.82 0 1.41.34s1.14 0 1.41.64c3.36-4.73.63-2.42.18.63 1.06-.41 2.06.73 1.49 1.35-.78-.42-1.33-.35-.43.27a1.27 1.27 0 0 0 -1.05.3c-.58.66-2.55 1.31-2 1.74-1.7.05-.12 1.27-1.53.49-.33.15.3.38.36.56-.36.3-1.11-.84-.86.19-.1 1.51-1.91 1.69-3.12 2.87.21.41-.55.09-.22.76-.76.05-.29.39-.65 1.05a1.1 1.1 0 0 1 -1 .45c.25.57 0 .64-.37.63 0 .21-.53.51-.4 1.19-.22.34 0 .33 0 .62-.1 0-.35-.23-.1.08-1-.05-.15 1-1.07 1.19-.31.19.65.56.2.69-.71.23-.21 1.51-1 1.45a1.87 1.87 0 0 1 -.31 1.08c.85.41-.43-.07-.15.44-1 1.31-1 3-2 4.48a1.76 1.76 0 0 1 -.65 1.79c.09.93.31.83-.67 1.07 1.33.14.6.25 0 .8-.28.52.9.38-.31.69-.21.74.86.68-.21 1.14 1.05.42.18 1.5.22 2.12 1.12.87-.48 1.86.39 2.6-.53.45.14.8-.54 1 .58.57.36.15.27 1-.8.84 1.21 2.06.26 2.66-.08.49.39 1.26 0 2.05 1 .43-.3 1.15.35 1.88.8.4.07 1.25.71 1.38-.81.73.45-.11.47.39-.24.36-.32.45-.93.28.51.81 1.08 0 .49.9 1.7.09 0 .68.47 1.42 1.33 0-.14.65 1.05 1.12-.06.3-.45.1-.48.41 0 .46 1.2-.68.51.23-1.27.58 1.43.73.79 1.13a8.71 8.71 0 0 1 .7 3c.87.76.73 1 1.82 1.81.13.57-.1 1 .61 1.11-.24.55.09.84.62 1 .67.44 1 .18.86.88.37.34.87.36 1.08 1.07.24-.3.65-.39.56.14.64.33 1.21.55 1.24 1.18.2.08.68-.25.75.49.67-.38.53-.36.37.24a10.82 10.82 0 0 1 2.82 1.94c.76-.56.88.34 1.63.61a3.82 3.82 0 0 1 2.08 1c.29.28.36-.08.44-.35.52.19.21 1.53.51.76.06-1.18.38 0 .74.28s.42-.89.68.34c.7.32.57-.83 1 0 .19.62.35-.48 1-.24 1.55.64 2.37-.5 3.61.43.31-1 .63.5.94-.26.25-.1.24.62.47.46.27-.86 1 .23 1.8-.16 1.16-.78 1.32-.3 2.45-.31 0-.46.43.38.35 0 .34-.48.68.44 1 .16.2-.74 1 0 1.26-.29.43.79.89-1 1.41-.19.36-.3.51-.56 1-.17-.29-1.16 0-.43.53-.56 0 .31-.62 1 0 .53.27-.23.11-1 .36-.39.93 0 0-1.16 1.5-.24 1 .33-1-3.64-1-4.07-.26.74-.66-.47-.85.43-.65.11-.79.52-1.07.57-.41-.61-.88.62-1.19 0a7.26 7.26 0 0 1 -2.58.25c-1.13.54-2.74.38-4.37.5-2.11-.4-2.65.24-4.25.08-.85-.43-1.59.43-2.45-.47-.55.77-.59-.41-1.66-.28-4-.77-6.47-3.18-9.68-6.08-.91-.84-1.09-1.69-2-3a5.83 5.83 0 0 1 -1.12-1.83c-.66.42-.15-.78-.81-.69-.18-.8-.64-1.22-.55-2-.74-.54-.24-2.18-1.36-1.47 1.19-.31.35-.33.83-.94-.2-.25-.67-.24-.55-.72-.53-.38-.28-1.07-.64-1.6.29-1.32 0 .12.83-.31.12-1.46.5-.29 1.11-1.36.43.21.48 0 1 .56.66-.38 1-.77 1.74-.72.38-.42.08 0 .63.05.14-.52.79-.79.92-.93.6.28 1.08-.49 1.85-.32s.57-1 1.13-.4c.8-.44 1.17-1.1 2.49-1.27.4-.71 2.39-.88 2.5-1.67.27-.2.71.17.33-.59a2.92 2.92 0 0 0 1.81-1.17c.13-.37.35-.23.7-.24.12-.21.08-.94.47-.26.39-.77 1.15-.52 1.41-1.29 2.26-2 4.81-3.62 6.61-6.76 0-.83.59-.65 1.06-1.47.53-1.11 1.15-2.07 1.07-2.8.57-.49-.06-1 .6-1.26.15-.76.59-1 .71-2.08 0-.4.87-.15.71.37.47 0 .18 0 .25.45.61-.39.58.45 1.06 0-.4.67.45.41.39.62.11.23.37 1.12 1 .83.09.84.35.69 1 .62.52 1.22 1.59 1 2.51 2 .33-.74.22.65.66-.37.29.69 1 .54 1.29.79.61-.31.2.51.94.17-.29.46.24.56.52.33.13.25.25.71.67.39a2.23 2.23 0 0 0 1 .26c.28-.26 0 .22.14.27s.35-.16.49.11c.51-.3.12.33.43.26s.5 0 .77.21c1.23.8 3.08.78 4.07.92.2.46 1.88.71 2.13.35.24.12.34.56.5-.06.22.23.39.33.53 0a4.94 4.94 0 0 0 2.29.37c.3 0 .09.82 1 .36.44.19-.8.38-.12.68s0 1 .67 1.12c-.76.27 0 1-.16 1.19-.15.55-.57 1.53 0 2.19-.94 1 .15 1.26-.14 2.36-.24 1.49-.93 3.65-.77 5 .06.32-.72.57.17.73-.54.5-.43 1.32-.79 1.8a1.17 1.17 0 0 1 -.38 1.31c-.1.22.4 1.06-.35.61a22.83 22.83 0 0 1 -1.59 3.54 19.77 19.77 0 0 1 -3.71 4.36c-1.38 1.42-2.46 3-4 3.61-1.3 1-2.75 1.67-3.35 2.42a1.18 1.18 0 0 0 -1 .73c-.25-.67-1.1.84-1.22 0-.57.15-1.46 1-2.22.7.19 0 1.06 4.3 1.63 3.21 1.19 1-.36-1.08 1.2 0-.54-1.27.22.23.61-.15 0-.21 0-.7.35-.45-.08-1 1.05-.7 1.83-.84-.15-.88 1.75.19 1.72-.7.22-.35.56.21.52-.55.77.23.43-.49 1.13-.91.52-.14 1 .11 1.07-.52.42-.18.78.24.83-.4.49 0 .42-1.28.67-1.07-.16-.33.84.23.7-.41-.46-.45 1.3-.48.68-.83-.15-.54.56-.59.92-1.27-.07-.91.4.2.68-.45-.45 0 .06-.65.43-.58-.73-1 .74-.11.44-.92 1.37-.87 1.59-2.17 2.68-3.28.63-.58.49-1.6 1.15-1.6.86-.61-.41-1 .71-1.16 1.16.21-1.39-.12.59-.74.1-.1.29-.25 0-.32-.85-.43.8 0 .53-.53s-.43-.62.38-.82c-.73-.47-.11-1.44.14-1.87.52-.37-.69-.89 0-1.27a2.31 2.31 0 0 1 .51-1.3c-.45-.52.27-.55 0-1.14.7-.18.38-.28 0-.59.67-.57.55-.8.58-1.48-.49-1.23-.24-1.27.1-2.31 0-.51-.23-.81.39-1.37-.15-.06-.59-.62.14-.83zm-62-4.17c0-.15.19-.1.2 0zm1 14.92s.18-.09.22 0a.69.69 0 0 1 -.3 0zm35.27 21.07c0 .1.07.18 0 .24 0-.09-.05-.17 0-.24zm-14.86.5c0 .1 0 .24-.14.19s.01-.17.14-.19zm36.42-37.68v.11a.65.65 0 0 0 0-.11zm-11.63-22.05c.16 0 0 .21-.09.18zm-14.53-3.26c.05 0 0 .21 0 .22a.65.65 0 0 1 0-.22zm-6.26-.52c-.79-.75.59 0 .13.14.15.83-.92-.31-.2 0-.03-.04-.28-.39.07-.14zm-1.3 1.14a.08.08 0 0 1 .1 0 .21.21 0 0 1 -.1 0zm.79-1c-.11-.12 0-.11.1-.07a.17.17 0 0 1 -.1.06zm-2.68 1c0 .07 0 .08-.05 0s.03-.01.05-.01zm-18.66 33.2c-.08-.47 0-.27.17 0-.07.23-.4.39-.17 0zm0-.66s-.01-.01-.01-.01zm0 .2c.06-.05.1-.13.13 0s-.22.11-.18 0zm3.8 1.86c0 .22-.49-.18-.22-.27s.27.12.17.27zm-.44.15c-.05 0-.06-.13 0-.09s-.02.1-.05.09zm-1.41 1.57s-.02.02-.05 0zm1.26-.79c-.23-.11-.22-.26-.32-.43a.34.34 0 0 1 .32.43zm1-.53c-.28.12-.08-.55-.5-.66-.12-.46.89.5.53.64zm2.64-.87c0-.1-.08-.16-.07-.23.07.09.07.16.07.23zm9-5.24c0-.08-.16-.16-.06-.21s.06.13.06.21zm18.6-14.29c0 .09-.08.12-.13.14s.16-.21.11-.14zm6.25 3.65c0-.06 0-.21.13-.17s-.09.16-.15.17zm13.06 3.11c-.69-.57-.26 0-.76 0-.16-1.2-.32 1.06-.44-.5-.28.54 0 .88-.22-.1-.58.47-.28.92-.86.66-.57-.52-.59 0-1.08-.91-.54.47-.17-.27-.43.16s-.14-.06-.22-.22c-.19.23-.08.23-.32.4-.58.26-.33-1-.76-.2-.21-.33 0-.27-.19-.47 0-.28-.1.37-.35.06 0 .2-.71.61-.48.37.06-.25 0 0-.07.07-.12-.1 0-.33-.09-.45-.51.77-.53-.56-.87.51-.17-.73-.92.31-.83-.5-.15-.26-.11.53-.27.07-.16.2-.3-.4-.45.38.11-1-.92-.33-1.4-1.24-.56 1.07-.58-.88-1.11 0-.17-.8-.49.16-.53-.75-.32-.35-.49.9-.46-.2.34-.82-.11.1-.25.45 0-.35 0-.53 0-.83-.71.4 0 0-.35-.34-.52.3-.35.46-.35-.22-.76 1-.87-.56-1.57.31-.3-.41-.61-1-.86-.51-.29-.51 0-1.09-.58-.41.08-1-.75-.76-1.22-.45 0-.74-.18-.75-.52-.86s.1-.75-.44-.32c-.32-.25 0-.63-.21-.72-1 .18-.23 0-.81-.27 0-.29-1.13.67-.05-.57-1.16.65.24-.63-1.08.31.78-1.56-.63-.2-.2-1 .53-.13-.19-.47-.35-.55-.58.62-.31.37-.2-.24-.63.62-.07-.95-1.25.3.06-.56 1.09-1.54-.08-.45-1.43 1 1.12-1.05.45-.76-1.08.62.13-.29-.2-.24-.87.85-1 .67-.05 0 .29-.47-1.09.59-.9.19.59-.73-.07-.35-.47-.42s.34-.46-.14-.51c-.89-.41-1.62-.61-3.35.17-.58.24 0 .12.2.39-.49.33.15.59-.45.88-.4.4 1.55-.27 0 .75 1.23-.32-.06.48.51 1.38-.81.75.46.83-.73 1.2 1.71.45-1.06.28.3.51.77.37-1.21-.12-.44.36.32.66.52.55 0 1.18-.61.37-.24.3-.39.65-.47.18-1.08.34-.75.81-.7 0 .06.13-.09.46-.73-.22.21.71-.43.91-.31.25-.74-.17-.34.48-.4.13-.24-.07-.56.11-.22 0 .2.72-.15.95.62.45-.25 0 .12.31-.64-.08-.51 0-.34.45-.55.2-.66.31-.21.74-.57-.08-.55.84-.73.94-.65-.45-.15.29-.44.41-.33.44-.55.39-1.14 1.09-.54-.12-.38.79-1 .54-.15.15.5.78-.06.58-.46 0-1 .25-.87.7-.46-.39-.17.39-.69 0-.12.13.51.39.06.37-1-.7-.26 1.13-1.36 0 .72.85.47.69-.32.46-.42.14.45.83-.5.13-.6.25.42.87-.48.57-.36-.43.21 1.16-.79.7.28.57-.38-.08-.34.27.1.61-.15.54-.47.8-.51-.4.19.81-.42 0-.33.33-.36.21-.47.63-.43-.47-.36.1-.51.12-.49-.53-.37-.13-.31.28-.8-.41-.67.16-1.3.15.23 1.24-1 .58-.93.79-.27.11-.42.34-.59.15a.27.27 0 0 1 -.53.07c-.4 1-.78 0-.84.6-.42-.62-.47.09-.67.41-.37-.14-.42-.29-.42.08-.74-.19-.16 1.54-.86-.19-.23 1.48-.53-.51-.53.9-.15.66-1.26-.83-1.3-1.19.34.26.61-.27 1-.15-.5-.49.6-.2.79-.3-.06-.7.28 0 .09-.7.57.47-.19-1.14 1-.54-.53-.89.65.09.29-.64.25 0-.06-.62-.05-.75.2.06.22.22.07 0 .06 0 .56.25.47 0-.6-.78.77 0-.06-1 .67.26.05-1 .76-.55.43 0-.52-.31 0-.25-.07-.23.33-.08.21-.31-.4-.16.53-.47.8-.8.18-.89.66 0 .28-1 .44.07.91-.28.58-.62.53.27 0-.32.57-.11 0-.1-.58-.27-.2-.3 1.06.46-.22-1 1.13-.17-1.08-.74-.5-.29.18-.5-.81-.65.24.11.3-.25s-.66-.38.07-.43c.52.36-.75-.88.27-.72-.55-.48.38.05.13-.3s-.33-.46-.22-.56.53-.16.12-.37c.6.17.14-.14.63-.12-.83-.69.55 0 0-.55 0-.1.4.07.47.09-.58-.83 1-.11.19-1.64 1.12-.05.2-.67 1.34-.72-.8-.88.8-.17.37-1-.44-.51.63-.08.1-.49.26-.27.5-.07-.2-.55.32-.35 1.06.77.82.09-.55-.5-.34-.18.13-.23-.85-.89-.35-.3.47-.6-.38-.28-.69-.48-.21-.45.5.56.28-.19.61-.33 0-.31-.37-.19-.63-.41 0-.14.93.17.68 0 .06 0-.64-.38-.13-.29.25 0 .36-.33.21-.42-1.3-.6 0-.45.51-.11-.06-.53-1.31-.46-1-.74-.48-.72 1.13.86 1.29.53-1.06-1-.07-.16 0-.47-2.46-1.22 1.62.66-.52-.57 1.25-.58-.61-1.62-2.14-2.13.17.67 1.11 1-.49.22-.7-.1 1.1.93-.46.14.09.46.7.42-.25.23-.24.63 1.33 1.08-.14.93 1.44 1.07-.65.41-.74 1.32.38.44-.48.41-.19.81-.54-.15-.41-.05-.24.33-.12.29-.29.31.08.6-.41-.14-.36 0-.44.17 0 .4-.8.4-.8 1-.18.6-.71.1-.42 1.22-1.09.44-.8 1.42-1.8 2.19.68.36-.59.15.35.65a.88.88 0 0 0 -.62 1.07c-.43-.24-.07.17-.15.32s-.71-.11-.25.38c-.68.07-.31.27-.67.59s-.46 1-.68 1.33c.17.38-.57-.29-.28.33-.38.12 0 .59-.54.29-.21.88-1.84 1.89-2.16 3 0 .2-.12.23-.29.3s.19.61-.19.47-1.49 1.26-1.39 1.63c-.75-.24.14.47-.52.39 0 .56-.29.51-.61.86-.44-.41-.42.89-1.11.65.21.56-.57-.44-.68-.94.73-.71-.4-.86.23-1.25-.65-.29-.34-2.21-.11-2.78-.81-.54.59-.93-.12-1.37-.05-.55.67-.11.41-.84.45-2.16.87-4.59 1.92-6.21.81-2.1 2.49-4.36 3.13-6.34a15.48 15.48 0 0 0 3.22-4.08c.66-.33.49-.95 1-1.1.56-.65.88-.38 1.25-1 1.46-.9 1.16-1.2-.07-2.61 2.13 3.25 1.94.88 3.7-.05.54-.52.66-.47 1.42-.4 0-.36.26-.66.67-.44.25-.58.17-1.05.62-1.19s-.52 1.71.35 1.3c.1-.27 0-1.19.25-.61.16.78.1.92.46.13.06 1.12 1 .45 1.13.05.46-.79.58.46 1.54-.49.62.18.75.81 1.74.77a2.6 2.6 0 0 1 2.45.19c.72-.7 1.42-.31 2.05-.31a4.47 4.47 0 0 1 2.13.56c.51-.45.7-.25 1.08.08.84.26 1.17-.46 2.22.11s1.85.13 2.76.71c1 .2 2.32 1 2.58.21a5.86 5.86 0 0 0 3 1c-.15.9 1.31-.12.75.78a12.9 12.9 0 0 1 5.32 3.5c1.69 1.16 3.32 4.24 4.78 5.79.12 2.15 1.96 4.37 2.01 5.76zm-42 3c0 .06.2.08.14.16s-.2-.14-.2-.21zm3.61-6.55c.09.05.16.07.2.13s-.23-.12-.26-.18zm40.7 25.23c0 .16-.2.07-.18-.08zm1.78-14.88h.24c-.08.03-.16.06-.24 0z"/><path d="m66 51c-.86 0-1.06 1-.07.39-.17.49-.59.68-.52 1.36-.09 1.38 1.5 2.74 1.46 2.9.52-.36.38-.47.17.09.15 0 .33-.58.35-.08.35-.2-.55.95.53.54 2.61.82.91-1 1.86-.58.47.29 1 .11.72-.52 1.14-.26 1.19-.9.26-1.47a2.3 2.3 0 0 1 1.24-.06c-.2-.71-.92-.24-1.21-.52 0-.23 0-.47.51-.21.92.75 1.43.1.26-.38 0-.27 1.6-.32.22-.46-2.15-.07 1.57-.06.31-.81-.69.26-.72.21-.79-.33-1.5-2.18-1.34-.22-2.6-1.75-.6.79-1.76.53-2.81 1.09-.3-.06 1.26.45.11.8zm1.42 4v-.08z"/><path d="m38 62.9s0 .01 0 0z"/><path d="m40.09 63.77c1.07.43 1.92-.36.37-.39.91-.6.67-.7-.21-.25-.76.27.49-.59.83-.47.18-1-1.3.59-.81-.34-.73-.2-.31-1.35-1.78-.67.81-1.62 0-.93-1-1-1.45-.75 0 .17-.63.44-.13.79-.4.08-.83.11-.5.4-.48.65.13.49.18.4-1 .63-1.22 1.81-.89 2.86 2.81 4.66 3.43 4.07 2.41-.22-.31-1.14 1.62-1 .31-.05 0-.29-.21-.48.77-.22.56-.58 1-.92-.69-.32-1.49-.25-.24-.72 1.86-.45-1.78-.06-.45-.68zm-3.15.42h.08zm.85.22h-.09zm-.66.08a.53.53 0 0 1 .28-.18zm-.13-.27s0 0 0 0c.76.08-.27.42 0 0zm.52 3s0-.07.05-.06-.02.1-.03.06zm-.16-2.51c-.21-.09.36-.44-.11-.15-.29-.08.5-.26.2-.23.21.34-.25.11.36.34.24.09-.42.03-.43.04zm.73-2.06c-.09.06 0 .41-.15.32s-.06-.34.17-.32z"/><path d="m37.39 64.44a.18.18 0 0 0 -.1 0z"/><path d="m37.29 64.48h-.06s.05.02.06 0z"/><path d="m49.12 68.18c-.06.46 3.89-3.44 2.61-3.11-.65.55-.29-.12-.72 0-.2-.45-.6.38-.33-.49-.12-.33-1.52.67-1 0-.65.49-3.08 2.25-2 2.15-.37.46.24.06.08.43-.28.83.12-.16.55-.09-.51.9-.15.35.19.15-.28.65 1.06.4.62.96z"/><path d="m59.09 69.82c.22.41.7.91.43.11.24.55.64.69.38 0 .71.94 0-.72.82-.13.05-.26.37-.16.19-.75.56.36.23-.55.59.1.26-.24.06-.65.48-.27.12-.36 0-.28.38 0-.29-.93 1.1.19.52-1.43 1.09.3.37-.29 1.14-.41.59.26-.59-.83.59-.3-.67-.66.29.14.12-.39-.46-.59.16-.33 0-.74.23.1 0 0-.1-.09.95.14-.31-.1-.23-.32 0 0 .53.1.36-.06.22.08.65.67.48.22 0-.18-.77-.37-.4-.34 1.32-.08-1.5-.24.73-.65-1-.16-4.66-1.44-4.15-.53.15.13 0 .1.34.26-.5-.14-.23 0-.42.11.11.06.36.15.09.09s0 .22-.6.15c.57.52-.55 0 0 .58 0 .46-.84-.18-.49.49-.55-.09-.6.35-.67.42-.38-.45.25.68-.08.27-.37.2-.47.18-.61.47s-.48-.44-.33.21c-.61-.59-.15.07-.61 0-.29-.25-.24.1-.49.16-.23.29-.3 0-.42.27-.06.41-.19-.62-.29 0-.27-.17-.25.36-.4-.2-.32.4-.34.06-.72.23-.2-.34-.69-.1-.88 0-.14-.3-.34-.09-.49 0-.15-.4-.16.07-.29 0s.1-.35-.28-.44c-.16.06-.22-.24-.36-.07s0-.36-.19-.17c-.16 0-.34.32-.16-.12-.18-.1-.29.44-.32.09s-.22 0-.31-.07c-.16.18-.05.06 0-.23-.49.14.09-.39-.3-.34.1-1.71-4 3.6-2.28 2.42-.7 1 .23-.21.15.1-.77 1.16.71-.2.6.4.27.08-.07.94.38.38.06.21 0 1.24.34.81.22-.08 0 .52.36 0 0 .72.17-.06.65.12 0 .2.17.26.13.63.18-.28.47-.44.3 0 .24-.25 0 .14.18.25.07-.28.1-.28.27-.14a2 2 0 0 1 .57-.45c.12.59.13.44.37.08.34.39.41.33.49-.24.18.74.85-.55.73.24.31.24.08-.52.42-.13.15-.7.26.45.46-.28.4.71.61-.21 1.09.34.11-.69-.07-.42.37-.27.06-.29.37.31.35 0-.13-.79.2.21.17-.17.22-.15.3.41.15-.26.35.6.55.54.45 0 .85 1.34.07.3.25-.01zm5.34-4.13a.68.68 0 0 1 .21.11c-.09-.04-.18-.06-.21-.11zm-4.64 4.24.07.2c-.08.03-.09-.13-.07-.2z"/><path d="m61.42 61.89c-.39.33.21.35.79.34-.69.34.27.23 0 .43-1.36.47-.17.43-.7.8 1.95.6 6 .94 3.46-.1.65-.2.88-.17.21-.39.84-.26.33-.6-.32-.47-.81.06.59-.51.59-.28.91-.4-1.26.1-.95-.14-.6-.14 2.56-.17.61-.31.27-.22 1.07-.22-.23-.12-.86.11.54-.18.87-.13-.31-.3-1 .06-1-.17 1.14-.16-1.7-.64-2.34-.55-1.21.1.63.21.35.53-1.87-.18-.94 0-.74.23-1.57.12.5.18-.6.33z"/></g></svg>