<svg viewBox="0 0 100 100" xmlns="http://www.w3.org/2000/svg"><path d="m37 45.83a14.33 14.33 0 0 0 -9.61 1.06 26.48 26.48 0 0 0 -7.67 5.69c-1.92 1.94-3.73 4.1-4.44 6.64a6.59 6.59 0 0 0 2.19 7.16c3 2.12 7.42 1.14 10.76 2.71 2.27 1.07 3.73 3.16 5.58 4.77a16 16 0 0 0 11.93 3.7 11.33 11.33 0 0 0 4.73-1.46c4.18-2.53 5-7.92 4.2-12.47a22.36 22.36 0 0 0 -8.95-14.69c-5-3.46-12.13-4.5-17.68-1.85" fill="#e69ec0"/><g fill="#172c42"><path d="m21.35 31.26c-.32 1 0 1.55-.18 3.34.78.16.25.48.5 1.09a5.42 5.42 0 0 0 .62 1.19c.39-.36-.09.59.29.81 1-.48.14.48.28.74.58-.77.5-.56.62.15s.8-.54.48.54c.22.69.85-.31.87.12.35.91.23 0 .78.13a3.14 3.14 0 0 0 2.39-.37c.31.09.37-.23 1 0-.11-.41.7-.52.91-.34.43.12-.32-.76.46-.37a1.6 1.6 0 0 0 1-.63c-.23-1 1-.45 1-1.15.44 0 .09-.17.41-.31s.54.09.41-.45c.14-.39.77-.26.85-.54 0-.74.28-.78.37-1.14s.56-.15.07-.48c-.69-.35.31-.08.21-.41.46.9.6.14 0-.2.2.09.89-.13.23-.35-.69-.52.39-.18.59-.62.13-.28-.16-.29-.37-.55.48-.21.73.32.6-.47.29-.51.14-.64-.49-.7 1.13-.55.09-.15.52-1.1 0-.45-.28-.16-.84-.47 1.13-.48 1.18-.69-.11-.45-.64-.93 1.26.23 1.26-.4-1.28-.55-.12-.16-.27-.62-2 .17.18.1.07-.41-1.51.33.12-.86-1.72-1.24 1.1-1.17-.73-1-1.41-2.21-.16.63-.13.71-.89-.09-.18.24.4 1-.31.23-1.25.45-2.71-.92-2.19 1.39 0-1.34-.44-1.58-1-1.07-.13-.7-.39-.39-.15.14-.88-1.14-.65.44-1.43.34-1.07.23-2.42-.06-2.73 1-.56-.42-.32 1.15-1.26.9-.37-.25 0 .45-.19.44-.31.15-.21 0-.53.17s0 .8-.29 1.14c.68.39-.3.07.12.32-.84.12-.12.49-.52 1s.54.1 0 .79c.27.51-.73 1.31-.03 1.17zm3 7.85c-.14 0-.05-.19.08-.16zm9.84-4.89c0 .05-.17 0-.16-.1zm-.19-8.35c-.07-.08 0-.06.07 0zm-1.27.8c.07-.13.19-.16.12 0s-.31.09-.15 0zm.33-.08s.16.05.11.12c-.24.09-.3.01-.17-.12zm-.91.26h.05s-.14.07-.08.02zm0 0s-.15.08-.15.15.06-.13.07-.12zm-8 6.58c-.39-.9.34-2.89.37-4 .37-.18.1-.37.24-.65.43.2.91-.51 1.16-.81.29-.08.45-.42.62-.52.46.36 0-.38.32-.28s.48-.19.58-.45c0 .23.52.2.59-.1.33.54.67 0 1.2.05.38-.34.48.92.88.25.69-.66.64.09 1.43-.34.41.35.34.64 1.28.37-.42.36-1.28.33-.29.43-1 .23-.31.7.33.68-.76.87.39.21 0 1.13-1.23.32 0 1.28-.81 1.61.46.53-.14 0-.25.34.33.37.14.77.21.92-.52-.12-.17.57-.37.53-.25.17-.92.45-.75 1-1.05 0-.33 1.11-1.58 1.21-.37.63-1.63.65-1.83 1.3-.45-.45-.07.41-.74.22-.24-.26-.75.43-.85-.12-.05-.22-.13-.1-.26.06-.43.06.29-.55-.15-.36a7.72 7.72 0 0 1 -1.26-1.34c-.34 0 .13-.15.11-.25s-.31-.17-.19-.42c-.54-.25.14-.19-.05-.43z"/><path d="m42.74 34.1c-.35.51.38.88 0 1.4 0 .23.84-.09.49.34.06 1.51.88 1.37 1.23 2.59.91-.61.21.48.4.71.74-1.86.39 1.22 1.16 0 .19 1.39.84-.09 1.28.89.34-1.06 1.55 0 2-.74s1.36 0 1.59-.81c.55.46.3-.53.85 0 .3-.23-.38-.64.38-.48 1.17-.2.35-1.91 1.67-1.55-.43-.26.17-.61.31-.62-.38-.38.3-.3.5-.43-.46-.59.24-.72.64-.94-.47-1.3.74-1.21-.07-1.8.37-.53.56.35.75.08-.15-.69-.79-.33 0-.64-1.31-.73 1.91-1.11-1.28-1.4.26 0 2 .43 1.05 0 .46-.24.76.27.56-.49.61-.89-1.22-.34 0-1 .18-.23-.89-.11 0-.53-.23-.62-.08-.44-.92-.55 0-.52 1-.24.94-.56-1.61 0-1.43-.45.14-.19.08-.69-1.62-.27-.18-.77-.76-.09-1.65.19-.21-.22.58-.41-.92-.23-.91-.44.62-.93-.45-.67-.79-1 .74-1.34-.06-.73-.56-1.39-.41.3-.54-.29-.82-.48-.11.12-.11 1.11-.54.16-.82-.53.17.49-.29.42-.4-.66-1.26.08-1.79-.16-1.32-1.19-.32 4.37.38 3.5.55-.67.7 0 1.47-.47.57.33-.14.8.89.28-.36.38-1.14.5-.23.37-.91.34-.32.54.36.51-.86 1.08 1-.14-.45 1.61-.29.42.5.77-.17 1.09.08.31.27.21-.21.36.47.37-.08.72.36.89-.17.11-.31.12-.37.42s-.27.6-.73.94c.48.67-.33.28-.28.71-.16.72-.37.83-1.1 1.4.19.61-.84.18-.81.81-.32-.19-.46-.07-.34.28-.16 0-.17-.38-.26-.08.17.44-.6.38-.81.27-.2.21-.52.44-.62.09s-.6.5-.28-.23c-.46 0-.39 0-.62-.42-.39.06-.56-.46-.78-.59s.07-.45-.19-.65a11 11 0 0 1 .72-4.51c-.28-.65.34-.33.53-1s1.09-1.15.94-1.51c.57-.09.36-.63.87-.44.25-.16.16-.47.46 0 .1-.19.57-.33.83-.35.77.78-.36-2.74-.2-2.89-1.12-.68-.46.59-1 0-.39-.83.11.8-.35.14-.45-1.17-.56 1.17-.86.59-1 .39-2 .5-2.63 1.2-.38.27-.15 1.37-1.07 1.62-.46-.2.32.78-.29.47-.26 0-.42.9-.11 1.26s-.87.13-.22.73c-.41.38-.52.56 0 .77a.76.76 0 0 0 -.1 1.14c-.27 0-.84.32-.17.28-.06.2-.42.68 0 .68s-.52.93-.14 1.33zm12.26-.7c.09 0 .16 0 .19.09s-.19-.03-.19-.09zm-8.47 6v.18c-.18-.02-.11-.2.01-.2z"/><path d="m66.54 47.36c.3-.61.78.47.67-.56a1.28 1.28 0 0 0 1.6-1.38c1.15 0 .91-.81 1.93-1.2-.43-.88 1-.5.77-1.48-.15-.79 1-1.17 0-1.46.35-.7 1 .61.8-.29-.51-.36-.41-.21.09-.36-.57-.81-.61-.34.22-1.07 0-.6-.82-.46.22-.73-.33-.6.41-1.21-.69-1.07 1-.67.08-.27.35-1.25-.07-.52-.18-.21-.86-.32-.12-.55 1.55-.53.59-.79-1.53.37-.93-.38.4-.15 0-.49-.51-.33-.88-.39 0-.26 1-.34.44-.46-.13 0-.84.4-.72.1 2.14-.59-.28-1.7-.84-2.93-.36-.17.37.64-.57.48.11-.43-.73-1.11-.41-.46s-1.12-.54-1.5-.21c-.9.27-.73-.57-1.53 0-.75-.89-.14.25-.79 0 0-.7-.37-.45-.19.13-.82-1.24-.82.49-2 .25a4.59 4.59 0 0 0 -2.73.81c.26.56-.61.22-.46.94-.12.6-1 .39-.92.73 0 .53-.22.28-.54.46s.07 1.4-.26 1.29c.37.32-.53 0-.39.32.33.29 0 .68-.29.8.42.54.07.54 0 1.33a12.21 12.21 0 0 0 -.36 3.63c.29.74-.28.61.52 1.12-.51 1 .74 1.31.56 2.13.73-.39 0 .31.44.65.82.18.49.21.46.93.62-1 .43-.36.73.3.37.41.56-.62.54.48.62.35.78-.58 1 .41.36-.63 1.24-.27 1.68-.16.21.32.68-.38.71-.45.33.09.89.37.78-.12.66.64.81-.36 1.43 0zm5.07-5.24c0 .05-.17 0-.17-.08a.68.68 0 0 1 .17.08zm-10.28 5.39c-.14 0-.06-.18.07-.16zm5.1-3.95c-.28.51-1.48.71-1.76.94-.14-.35-.26.14-.2.38-.33-.36-.84.08-1-.26-.26.19-.71.34-.82-.13-.11-.1-.71.43-.29-.22-.75-.15-1-1-1.67-1.44.21-.32-.11-.61-.22-1 .52-.23-.21-.65.08-1 .14-1.14.75-2.43 1-3.49.6-.61-.1-.55.83-1 .63-.93 1.36-1.35 1.62-1.79.29 0 .48-.17.59-.43.2.52.69-.38.82.29.9-.42 1.6.41 1.46-1.53-.07.83-.26 2.29.72 1.85.6-1 .72.43 1.61-.13-.38.42-1.1.5-.15.45-1 .49-.08.68.56.72-1 .73.65.4 0 1.13-.88.62 0 1.17-.43 1.89 4.7.65 1.91-.07.07.13.26.2-.4 0-.35.27.59.29-.13.74.38.89a1.5 1.5 0 0 0 -.6 1.15c-.73.09-.33.68-.94 1-.35.52-.35 1.01-1.31 1.33z"/><path d="m81.58 57.17c2-1.2-3-.43-3.28-.44.53.28-.59.11.15.54-.18.36.28.44.12.55-.56.07.21.56-.42.55.23.45-.73.33-.3 1-.22.07-.87.16-.43.43-.32-.16 0 .31-.2.48-.33.11-1 .19-1 .42 0 .44-.85.36-1.06.54-.6-.26-.07.6-.55.11-.24.73-1.14.12-1.8.46 0-.35-.19-.42-.36-.13-.39.14.14-.63-.23-.33a12.16 12.16 0 0 1 -1.86-1c.31-.24-.27-.48-.44-.62.39-.42 0-.38-.18-.64a19.82 19.82 0 0 0 -.16-2.18 4 4 0 0 0 .42-1.55 2.73 2.73 0 0 0 1.2-1.06c.14-.27 1.1-.6.78-.84.25-.17.63-.2.65-.61.18.44.53-.27.7-.08 0 .26.36.1.46-.06.85 0 .78-.08.63-1.18.06 1.14.37 2 1 1 .31.23.34.11.77.19.44-.34.22.22.43.4.17-.17.64-.29.33.09.55-.06 1-.32.12.25.31.24.75-.33.08.35.35.31.4.28.91.15s-.3.44-.23.6c.89-.31.79.4.53.63-1.36 2.07 4.12 1.81 3.64.32-.21 0-.17-.85-.42-.39-.94.3.56-.65-.1-.59-.4.16-.08-.68-.2-.84-1 .31-1 0-.32-.51s-1.6.64-.88-.18c1 .09 1.55-.65.22-.36 1.16-1.08-.59.18-.39-.22 2.05-1.21-1 .2 0-1-.62-.54-1.22-.63-1.8-1.63-.44-.78-.1.94-.74.11-.54-1.3-.11.2-.44.06-.43-.92-1.91.09-2.3-.55-.5-.08-.46.75-1.17 0 .16.77-.19.59-.45.09 0 1.33-.52-1-.93 1.16-.07-.3-2.84.4-2.53.64-.56.29-.59.84-1.17 1.4-.59.13-.53 0-.55.58-.66-.08-.62.33-.64 1.09-.35.17.27.21 0 .39-.34-.19.15.2-.35.14-.41.12.17.51-.18 1-.52.11.09.35.25.43-.3.24-.41 1 0 1.28-.82.31-.08.33-.11.78-.28.39.08.25.4.27-.1.26-.74.12-.27.39a3.62 3.62 0 0 0 1.22 2.54c-.12.5 2.09 2.77 2 1.87.35.8-.15 1.23.46.21 0 1.19.77.53.76.95.06.93.79-.43.77.15.32.8.22-.17.67 0 .55-.3 1.15.63 1.36-.13.36 0 1.11-.38 1.17 0 .57-.1.52-.54 1-.25.29-.51.26 0 .62 0-.18-.83.65-.21.88-.49a1.91 1.91 0 0 0 .69-1.21c.86 0 .93-.38 1.33-1 .71 0 .38-.26.42-.66.52-.27 1.08-.3.68-1.16.42-.55.28-.73.53-1-.93-.23-.18-.16-.15-.56.68.82.62 0-.06-.21 1.6-.27-.74-.7.3-.93zm-9.78 7.45c-.13 0 0-.17.06-.17zm9.46-5.22s-.18 0-.18-.07a.61.61 0 0 1 .18.07z"/><path d="m63.2 61.51c-1.45.42 1-1-.38-.94 1.08-.63-.18-.75.07-1.06s-.85-.95-.58-1.71c-.57-.73-.93-1.06-.91-2-.36-.19-.44 0-.27-.54-.58-.23 0-.27-.11-.64-.62.22-.52-.37-.39-.79a.62.62 0 0 1 -.49-.63c-1.27 0-.71-.88-1.26-1.4-.35.18.09-.48-.2-.23-.49 0 .1-1.06-.43-.63-.75-.36-.13-.93-.88-1.29-1 0-.7-1.45-1.5-.61-.44-.49 1.12-1-.14-.74-.39.09.34-.79-.82-.17.71-2.84-2.81 1.95-.35-1-.57.4-.3-.06-.05-.38-.52 0-.92-1.14-1.19-.26-.37.23.08-.83-.25-.62-.53.49-.54-1.32-1.21-.14-.84.5.24-1 0-1-.63.71-1.64 1.15-.57.19.85-.44.27-.81-.3-.23-.23-.24.51-1.1-.38-.06 1-1.32-.74-.35-1.36-2-.27.66-.26.64-.84-.24-.12 1.06 0 .24-.8.07-.81 0-1.85-1-2-.41-.72-1.08-.95.46-1-.83-.29-.26-.08 1-.37.42 0-.34 0-.94-.37-.4-.92.48-2-.11-3.13-.84-.54.35-.53-.24-.86.27-.47-.48-.5.11-1.21.11-.43-.17-.61-.58-1-.16-.27 0-.61-.67-.62-.13a1.91 1.91 0 0 0 -1.16.53c-.53-.65-.5.17-1.19 0-.62-.34.12.58-.79.35-.85.51-1.1.13-1.65.59a10 10 0 0 0 -1.73.6c-.59.14-1.62.27-1.51 1-.89-.14-2.21.83-2 1.15-1-.36-.73.39-1 .57-.84-.32-.6-.28-.09.35-1.21-.34-.72.6-1.49.33-.54.45.36.71-.49.8-.6-.3.32.45-.1.56a2.29 2.29 0 0 1 -.68.86c-.43 0 0 .77 0 .83-.5.3-.5.48-.47.79-.78 0-.31 1.27-1.1 1.37-.39.09.25.3.23.46-.39.25-.7.5-.65.82a2.26 2.26 0 0 0 .26 1.37c-.7.6-.24.76-.66 1.4.54.36-.58.62.08 1 .15.58-.6.68-.24 1.37.6.39-.08 1 .37 1.18-.7.58.35 0 .38.4-.28.28-.34.29-.85.11.13.38.41.38.73.44-1.26.64 1.13.27-.2 1.13-1 1.22 3.2-.26 3.58-.18-.39-.29-.17-.17.05-.48-1.14-1.15-.3-2-.53-3.51-.52-.36.43-.44.08-.82.31-.4-.37-.48-.14-1.11.56-1.15.77-3.08 1.47-3.76-.51-.76.84-1.44.84-2.22.16-.28.25-.18.55-.28 0-.12-.12-.65.24-.47.09.37.63-.35.5-.56.22-.11.89 0 .78-.52a8.69 8.69 0 0 1 4.86-2.22 11 11 0 0 1 5.67-.72c.78-.17 1.7.31 2.07-.17a.9.9 0 0 0 1.1 0c-.12 0 .4.62.55.25a5.44 5.44 0 0 0 2 .7c0 .41.11-.09.13 0 .09.39.25 1 .65.53.31.2.85-.57 1 .22.43 0 1.49-.07 1.39.5-.32.76.53-.08.53.27-.58.54-.06.31.27.11-.29.47-.23.56.16.79.36-.14 1.3-.68.82.34.86-.37 1.27 0 1.13.89.73.76 1.75.8 1.89 1.82.94-.29 1.22 1.17 1.76.89.08 1 1 1.41 1.39 2.15a10.37 10.37 0 0 1 2.66 4.33c.68-.35-.17.75.72.27a3.54 3.54 0 0 0 .7 2.06c-.23.49.59 1.13-.09 1.07.38.88 0 1.54.3 2.53a29.47 29.47 0 0 1 -.74 3.15 28.53 28.53 0 0 0 -1.85 5c-.63.55-1.55 1.71-2.1 2.31-.37-.24-.25.16-.23.35-.26 0-.6-.07-.51.34-.45-.09-.92.6-1.27.11-.23.23-1.32.65-1.58.15-.27.59-.3-.61-.62.14-.49-.07-.66.24-.84.18-.11-.6-.8.23-.79-.38-.54-.19-1.39-.27-1.72-.73-.52-.32-.51-.06-1.2-.19-.47-.8-1.11-.94-1.76-1.38-1-1.34-1.55-1.27-2.52-2-.39-.88-1.33-.64-1.69-1.48-.86-.33-.46-.58-1.39-1-2.34-1.32-5-1.11-7.5-1.45-2.43-.1-3.52-.15-5.27-1.73-.29-.45-.7-.51-.79-1-.44.33-.39-.58-.76-.68a16.11 16.11 0 0 0 -.4-1.71c.59-1.92-4.27.14-3 .52.83 0-1 1 .38.44-.63.71-.38.83.37 1.08.47.9.58 2.94 1.47 3.53.44-.18.37.15.35.45.41-.16 1 .23 1.21.52.22.56.16.55.65.53.3.25.11.75.66.54.61.39 1.36-.32 1.39.33.29.6.52-.46.77.09.59.15.59.36.83-.24.68.33 2.59.54 2.53-.15.3.67 1.28.51 2.11.45.79.5.44 0 .94-.08.43.65 1.1.36 1.38.52.37-.07.41.94 1 .3.11 1.37-.13.29.39.22-.18 1.19.66.23.34 1.11 1.3 0-.07.36 1.13.37.7.74 1 .66 1.63 1.16.27.32.32.21.56.81.57-.12.27.42.79.5-.24 1 .28-.33.82 1.09a1.82 1.82 0 0 0 1.49.24c.3.84.32.67 1 1-.13.38.13-.09.3.08.08 0 .2.67.39.54.53-.39.86.28 1.18.66.39-.18 1-.38 1.15 0 .1.09.48-.27.5.07.13-.6.23.45.32.07s.11-.65.3-.42c.31.4-.32 1.3.45.26.2 0 .56.92.66-.18 1.78 1.72 1-.81 1-2.15-.18.77.62 3.44 1.05 2.27-.05-.88 1 1 .53-.16 0-.76.37.75.69.25.18-.11.46-1.26.67-.83 1.16-.46 3.14-.4 3.3-1.62.81.12.22-.86 1-1.09.33-.41.74-.15.61-.84.9.22.6-1.55.65-1.7.91-.09 0-.48.47-.72.64-.81-.1-.4 0-.9 1-1.92.54-2.42 1.81-4.91-.44-.45-.45-.34 0-.82.14-.65 0-.91.22-1.34-.27-.56.1-.5.26-1.33-1.57-.07.83-.56-.1-.56zm-.2-1.51c.06.12-.12.14-.17 0zm-42.11-1.69s.17-.05.19 0a.66.66 0 0 1 -.19 0zm3.67-11.86c0-.08-.17-.11-.07-.19a.13.13 0 0 1 .07.19zm32.12 2.89c0 .08-.08.1-.14.1s.19-.18.14-.1zm-18.13 22.34c-.1-.05 0-.18.12-.14zm10.24 6.44s0-.18.05-.18a1.43 1.43 0 0 1 -.05.18z"/><path d="m35.31 54.46a1.14 1.14 0 0 1 0 1.66c.63.4.06.53 0 1 .37.15.62 1.19.75 1.16-.51.55.19.58.15 1.21 1 2.53 3 6 7.32 5.51 0-.4 1.13.66 1.09-.33.74.29.73.81.48-.2.93.66.95-.27 1.55.16.64-.2.05-.72.79-.56.15.09.68-1.09 1.29-1 .37-.45.83-.91 1.14-1.25.67.26.84-1 1.59-.92.38 0-.09-.37 0-.5.44-.15.83-.31.91-.67.5-.82-.06-1.78 1-2.14-.56-.11.17-1-.06-1-.11-.6.38-.89 0-1.28a3.53 3.53 0 0 0 -1.45-2.82c-.56-.61-.47.25-1.13-.56 1.12-.16.23-.61-.23 0 .09-.27-.36-.85-.43-.19-1.67-1.47-1.56.32-1.67-1-.9.2-2.3-.12-1.73.84-1.1-.37-.77.25-1.15.27-.09 0 0 .33 0 .8-.3 0-.17-.63-.18-1-.11 1.34-.68 1.77-.08.2.22-.69-.54.93 0-.29-.55 1-.91 1.24-.1.13.11-.24-.45.55-.53.34.13-.29.45-.41-.1-.36.81-1 0-.54.08-1.1-.54 0-.26-1.24-.62-.87.28.15 0 .5-.17.19-.61.14.16-.93-.56-.88.1.19.17.79-.12.42-1-1.68-4.95-2.45-3 .86-.46-2.18-.88-2.13-2-1.37-.34-.41-.43.14 0 .33-.29.32-1-.53-.82.24a7.72 7.72 0 0 1 -1.58 3.09c-.65.82.13 1.36-.43 1.88zm16.79-1.53s-.08.14-.14.1.09-.09.14-.1zm-5.4 11.42c-.05-.06-.07-.11 0-.19.04.09.11.15 0 .19zm-4.12-11.82c0 .11.13 0 .23.11-.06-.05-.42-.06-.23-.11zm-4.24 4c.45-1.88-.38-4.59 1-5 .3-.41 1-1.23 1.16-.32.18-.71.31-.32.76-.13 1.78 1-.05 2.56 1.53 2-.18.63-1.06.87.07.87-.69.9.59.86.84 1.13 1.16-.57 1.12.27 2.36-.65.61-.29 1.71-.14 1.71-.64.42.06.29.32.66.14-.08.56.23.18.47.18.35.27.64 0 .79.15-.11.48.55 0 .29.53.56.48.22 1.42.52 1.83a3.89 3.89 0 0 1 -1.44 2.38c-.45.42-.71.91-1.07.92-.07.48.09.33-.28.61-1.1.69-1.59 1-2.56 1.68-1-.31-2.64 1-3.81.17-1.73-.49-2.73-3.86-3-5.81z"/></g></svg>