<svg viewBox="0 0 100 100" xmlns="http://www.w3.org/2000/svg"><path d="m52.31 87.76a7.61 7.61 0 0 0 3.75-.21c2-.67 3.83-2.33 5.48-3.66 1.83-1.44 3.58-3 5.28-4.57l.62-.59a105.33 105.33 0 0 0 8.56-9.43c3.56-4.38 7.83-9.53 8.9-15.21a17.49 17.49 0 0 0 -3.49-13.75 16.49 16.49 0 0 0 -4.31-3.89 16.91 16.91 0 0 0 -8.47-2.45 17.26 17.26 0 0 0 -10.77 3.4c-.8.62-1.55 1.3-2.33 1.93a14 14 0 0 1 -1.43 1 8.09 8.09 0 0 1 -.76.42 4.63 4.63 0 0 1 -3.61.21q-.42-.15-.81-.33a16.81 16.81 0 0 1 -1.54-.87c-.85-.54-1.66-1.13-2.53-1.65a17.28 17.28 0 0 0 -11.13-2.11c-.52.07-1 .17-1.55.29a16.54 16.54 0 0 0 -6.62 3.11 17.48 17.48 0 0 0 -5.75 18.41c1.1 3.55 3.49 6.73 6.12 9.59 1.47 1.6 3 3.1 4.46 4.51.47.46.94.92 1.42 1.37a99.63 99.63 0 0 0 8.89 7.53q2.79 2.1 5.76 4l1.57 1a13.27 13.27 0 0 0 4.29 1.95z" fill="#ef5844"/><g fill="#172c42"><path d="m84.19 48.69c-.14-1.68.25-6-1.37-7.75.45-.7-.54-.53-.81-1.65a2.92 2.92 0 0 0 -1.07-1.7c-.25-.67-.18-.84-.83-1.25.66-.08-1.13-2.2-1.32-2.14a17.44 17.44 0 0 0 -3-2.76c-2-2.81-7.13-3.65-10.66-3.74a15.1 15.1 0 0 0 -5.25 1.47c-1.9.75-4.77.52-2.3 3.61-1.69-3.52-1.82-2.25-3.71-.66-.46.64-1.58 2.05-2 .89-.13-.37-.31 1.26-.76.16-.1-1-.39-.73-.44 0-.29-.86-1-.66-1.54-1.43a1 1 0 0 1 -1.27-.84c-.88.34-.89-.19-1.36-.67-.34.85-.61.12-.5-.37-.36-.28-.53 1.43-.55 0 .14-.81-1.56.39-2.11-.37-1-.69-1.65-.68-2.56-1.56-1.27-.08-1.84.06-3.25-.11-.51-.46-.54-.47-1-.2-.57-.38-.55-.4-1.45-.3-.16.21-1 .69-1 .46 0 .26-.64-.65-.93-.11 0 .55-1-.15-1.27.05 0 .16-.06.73-.3.52-.7-.41-1.56.71-2 .12-.62-.23.23.57-.37.26-.22.27-.93-.14-.81.36 0 .18-4.09.34-4.25 1.82-2 .33-2.68 1.65-3.94 2.56.72 1-2-.27-.17.92-1.24-.08-1 1-1.48 1-1.07-.08.12 1.21-.5 1.09-.91.28.08.51-.3 1.26 0 .69-1.14 1.19-.44 1.77.08 1.2-.9 1.82-.44 3-.82.28.26.85-.64 1 .5.66.32.31.19 1.15-.6.59.16 2 .61 2.34-.62.9-.22 1.4-.18 2.11.42.59-.49 1 .33 1.36a2.69 2.69 0 0 1 -.19 1.47c1.35.69.64 2.38 1.61 2.15.59-.34-.27.52.14.69-.32 0-1.16-.54-.52.11.61.34.89-.17.38.59 2 2.2.06 2.11 4.55-.26-.66-.26-.13-.26-.24-.77-.81 0-.57-1.14-1.2-1 .11-1-.65-1.6-.6-2.82 0-.46-.21-.52-.52-.83-.13-.33.5-.6 0-.93-.1-.65-.88-1.53-.42-2.79a11.41 11.41 0 0 1 .32-4.62c-.81-.72.48-1.75.24-2.82a16.25 16.25 0 0 1 5.26-5.76 59.33 59.33 0 0 1 9.34-1.77c2.93 1 6 .59 8 1.79.21.77 2.49.7 2.47 1.78.2.86 1.14.2 1.58.4a4.35 4.35 0 0 0 1.82 1.08c.6 0 .41.81.88 1.06.69-.42 1 1 1.57 0 .33.35-.85 1.71.66.51-.37 1-.38 1.84.86 1.59.61-.46.57.27.29.66.23.13 1.37-.4 1.11.24 1.22 4.32 3.65 1.73 4.59-.22.24-.34-.63-.71-.85-1s-.45 1-.58.15c.28-.68.06-.53-.46-.45.09-1-.53-.88-1.2-.36-.47-.52.62-1 .34-1.24-.77 0-.54.64-1 .84-.28-.18-.66-.45.1-.59 1.09-.48.76-1-.25-.42.12-.61.79-.83-.17-.62 1-.66-.51-.17-.08-.33-.2-.68 1.57.39.29-.62 1.06.17 1.51-1.62 2.33-1.21.52-.16.13-1 1.15-.42-.41-.75.05-.75.44-.2-.21-1.54.55 1 .95-1.38.89.5 1.6-.52 2.48.15.42 0 .49 0 .68-.3.19.14.36.39.32 0 .43-.28.42.12 1-.41.39-.47.86.64 1 .22.49-.45.34.12.82.3.07-.32.6-.46 1-.42 0-.31.28-.45.16-.06.16-.35.2 0 .27.11.17.58.35-.26.52-.17s.31.29.47.2c.12.67.2-.16.4-.05.11-.42.94.67 1.44.08-.07.32.17 1 .3.26.27.11.53.75.75.33s.59.93 1.33 1c-.07.57.64.25.77.66s.22.5.77.24c.18.43.39 1.54 1 1.19.06 1 .72.37.53 1.36.35.36 1.19.2.23.83 0 .56.52-.36.78-.34 0 .45-.57 1.52.3 1-.92 1.24.61.44.28 1.26-.36.36.51-.06.71.47.24.69.16 1.25 1 1.29-.13.63.1.7.32.9-.53.32.09.7.27.93-.63.47.49.52-.31.91.1.38.88-.11.33.59-.32.87.69 1.39.68 2a1.52 1.52 0 0 0 -.27 1.36c-.08.68-.73.21-.22.91.07.63-.65.44-.58 1.11.56.72-.44 1-.06 1.35-1 .16.4.15.18.58-.34-.15-.59.46-.75-.35-.49.06.12.64.3.79-.73-.17-.63.18-.26.51.66.67-1.6 0-.8.93.08-.22 4.24 2.86 3.48 1.37.93.36.29-2 .77-1.81a13.19 13.19 0 0 0 1.62-4.63zm-66.19 4.37c-.05 0 .16-.12.2-.06s-.13.07-.2.06zm.27-17.32c0-.17.23-.08.18.11zm33.87 1.35c.27.06 0 .14-.11.2.04-.06.09-.13.12-.2zm3.18-.81c-.23.17-.34.47-.64.54.11-.26.32-.55.65-.54zm22.24 2.46c-.1-.09.1-.18.18-.1zm2.43 12c-.09 0-.17 0-.21-.11s.22.08.22.16z"/><path d="m78.45 53.88c-.06.34-.31.19-.7.34.21.18.74.37.25.58-1.19-.44.22.25-.19.36-1.34-.54.11 1.22-1.23 1.87-.87.08 0 .58-.64.65-.81.32-1.34.89-1.15 1.46-.7.1-.23.91-.84 1.3-1 .08-.21.78-1 .67.34.26-.31 0-.35.2.51.27-.31.35 0 .6-.16.6-.11.77-.19.92-1.12-.21-.1.55-.72.63-.22.17-.14.41-.43.3-.27.14.51.64.1.68-.74.13-.47 1.32-1.3 1.12 0 .22.21.66-.47.66 0 .28.63.75 0 .43-.61.11-1.22 1.33-2.26 1.95-.58.17.5.62-.79.84-1.06.78-.89 1.36-2 1.45-.47.74-.13.83-1.07.41 1.61 1.22-1.15.25-1.31 1.37.55.61-.38.1-.61.23.73.91-.88 1.14-1.11 1.47.09 1.07-1 .94-1.27 1.38-.7 0 0 .77-.79.39-.32.55-.25.22-.74.24.42 1-1.68.21-1.74 2.11-1.24-.31-1.08.56-2.21.65-.49-.47-.17 1.19-1 .35-.37-.32.05.48-.14.32-.54-.53-.53.22-.79.54-.57-.24-.31 0-.72.17-.15 0-.35-.28-.18.52-.63 0-.13-1.07-.5-.77-.26.45 0 .9-.34.13-.71 1.44-.87-2-1.67 2.57-.05-.37.94-2.61.19-2.31 0-.74-.9-1.2.14-.69-.91-.88.15 0 .11-.16-.7-.69-.07 0 .19-.07-.09 0-.68-1.15-.27-.65a.71.71 0 0 1 .6 0c-.47-.57.28.06.45-.07.46.13-.32-.48.3-.1-.32-.43-.2-.3.12-.19-.72-.82.59-.13.18-.63.12-.16.63.42.33-.08.2-.29-.49-.86.27-.4-.27-.55.29-.24-.11-.79.47.35-.11-.85.42-.22.33 0-.21-.25 0-.33 0-.34.3 0 .74-.52-.21-.26.28 0 .32-.07s-.57-.62-.16-.38c.69.24.43-.77.86-.3.4-.23-.29-.6.66 0-.85-.84-.55-.43.11-.3-.69-.75.12.11.22-.08-.26-.53-.32-.42.21-.15-.76-.9.51-.43-.2-1.23.31 0 .48.09.16-.23.32.21.62.22.27-.18.54 0 .8.38.33-.25 1.12.58.2-.63.48-.66 1 .61 0-.49.88 0 .25.1-.16-.37-.11-.41.21 0 .72.53.27 0 .55.43.26 0 .16-.31.5.18.17-.25.45-.1-1.09-1.18.59.51.25 0s-.31-.29.11-.11c-.65-.93-.35-.38.39-.21-.68-.88.06.07.17-.33.57.27-.49-.72-.19-.54.5.33.49.32.17-.13.67.48.07-.24.43.08-.89-1.1-.29-.51.33-.09-1-1-1.12-1.42 0-.18.57.48-.66-1 .41 0-1-1.13-.76-.59.11-.12-1.36-1.2.48 0-.65-1.45a8.5 8.5 0 0 0 -1.59-1.56c-.29 0 .7.71.32.74-1.78-1.9.18.29-1.14-.81.57.66-.13-.15-.23 0s.18.33.48.86c-1.5-1.06.6.83-.61.15.46.5-.78-.54-.45-.09-.35.2-.2.14-.21.48-.2.08-.53-.22-.21.18-.7-.57-.1.7-.31.53-.48.06-1.47.35-1.3 1.14-.7-.08-.57.19-.8.55-.65-.06-.34.82-.7.53.37.5 0 .63-.24.69 0 .33.17.56-.29.46.23.68-.29-.17-.26.34s-.55-.17-.31.44c-.28 0-.2.57-.32.59-.28-.33-.29.11-.31.32-.48-.35-.23 0-.37.07 0 .23-.8.26-.83.71-.49.24-.39.69-.75.85-.12 0 .19.29 0 .28.07.3-.41-.3-.39 0-.37.25-.32.54-.65.57.06.46.08.21-.23.3.26.19.24.35 0 .23 0 .14.19.57-.07.3-.31.31-.14.17-.58.18-.16.51-.62.33.45 1.22-.66-.61-1.87-1.76-1.11-.26-.69-.13.1.94-.54.58-.38-1.73-2.5-.44-2.65-2.38-1.14.25-.06-.18-.65-.53.62.33.49.23 0-.58.72.33.54-.22 1.37.15-.2-.6.33.16-.06-.46.56.21.07 0 .14-.36 0-.13.31 0 .57.19-.22-.38-.26-.43.11-.18-.3-.31.13.1.19 0-.13-.17-.27-.2 0-.24-.21-.59-.19-.35-.18-.59.11 0 .23.2.35.23s-.5-.58-.06-.32c.1-.11 0-.1.21 0s-.51-.57-.26-.46c.4.42.13-.51.23-.39.26.29.47.23.07-.06.3 0 .38 0 0-.43.67.55.26 0 .49.06.48.16.15-.26.62-.3.48.3-.43-.5-.1-.38s.7.13.41-.25c.27.19.56.12.15-.2.59.36.65.23.31-.17.77.45.77.58.11-.09 0-.11.49.26.67.29-.61-.9.09.17.26-.08-.28-.62-.28-.32.23-.16-.76-.67 0-.6.07-.7-.53-.63.29-.27-.12-.71.49.17.46.3.48-.23.33.14.6.42.16-.08.78.17.47-.29.34-.75.4 0 .64.53.44 0 .18.1.23.13.06-.07.35.09.13.18.12-.1 0 0 .6.37.35.07s.1 0-.09-.18.53.22.27-.1c.62.55-.11-.45.31-.26.27.21-.1-.18.09-.17.39.26-.17-.27-.15-.37.3 0 .92 1.06.41.15-.37-.44.08.09.27.11-.51-.81-.47-.53.26-.22.4 0-2.63-2.75-2.82-3.06.22.45-.07 0-.28 0 .23.32.09.47 0 .51.15.17.27.37 0 .14-.39 0-.17.37-.93.25.18.34.18.52-.17.23-.23.06-.06.31-.13.27.17.41-.35.35-.61.5-.4-.09.32.44-.17.36-.25.08-.3.29-.47.35-.35 0 0 .16.06.36-.46-.31-.23 0 .05.31-.4 0-.58.17-.46.56-.49-.41.29.51-.41.09-.23 0 .26.29.06.36s-.46-.49-.27-.13c-.17.35-.53.21-.53.82-.08.11-.23 0-.1.24-.07.2-.39-.48-.28.12-.23-.08-.08.1-.08.21-.29-.23-.23-.09-.43-.1.29.38-.27.19-.3.5-.4-.12-.63.44-.7.66-.35-.07-.34.29-.33.48-.4 0-.06.17-.18.34-.23-.21-.86.07-.75.48-.64-.27.12.62-.44.19 0 .21.28.44-.12.31 0 .13.19.57-.07.29-.3.28-.13.19-.56.14 0 .31-.5.42-.35.49-1.08-.85 0 .94-1.1-.19-.8-.22 0-.27-.49-.72-.35.74-.39-1-1.07-.11.18-.79-.68-1.53-1.53-2.16-.32-.46-.1-.54-.14-.8 1.4 1.11-3.12-4.06-2.57-2.61-.85-.21-.65-.14-.39-1-.28.1-.57.93-.68.5.18-.49-.38-1.94-.89-1.7-.44.54-.07-.52-.17-.63-.29.42-.6.18-.88 0s.44-.38-.08-.25c-.06-.07.41-.18.1-.15-.5 0-.69-.26-.22-.35-.7-.45.25.12 0-.27.56-.17-.33-.54.57-.54-.1-.78 1 .11.34-.89 1.37-.12 1-1.18 1.5-1.86-.22-.25.53-.4.87-.26-.51-.27.32-.78.42-.7 0-.73.94-.15.76-1.14.77-.21 1.15-.08 1.23-1.21 1-.32.8-.65.76-1.27.6-.18.53.92.79.4 0-.8-.42-.53.39-.51-.42-1.32 0-.48 1.08-.85a10 10 0 0 0 -1.41-1.72c1.29 1.64 1.6 1 2 .35.91.9-.31-.61.32-.27.86.8.56-.65.67-1.11.34.05 1.6-.34 1.46-.81 1.82-.05 1.82-.91 2.63-1.81.12-.64 1.39.19.94-.61.21.12.25.6.2.13 0 0 .12-.49.24-.54-.08.27.13-.1 0 .47.1-.17.4-.28.44.29.76-.31.5-.08 1.2.42.92.52.34.63 1.28.93 0 .82.39-.19.55 0-.52.89.62.42.7 1.2.23.39.8.63 1.29 1 .21.26.13.74.61.35.39-.15.77.89 1.24 1.19.76-.3.88.79 1.45.34.11 1.09.85.57 1.22.56.34.25.21 1.42.42.58 0-1.57.93 1.35 1.34-.07.2.78.88.78 1 .09.27.08.62.93.64.34.84-1 2.58.19 2.92-1.33a4.3 4.3 0 0 0 2.4-2.31c1 .16.19-.3.28-.6.86-.26 1.08-1.14 1.15-2-.88-1.32-.21-2-.83-3.11-.51-.46.24-1.06-.64-1.18-.22-.84.13-1.31-1.14-2 .11-.59-.5-.47-.51-.81-.18-.41-.27 0-.77-.09 0-.51 1.24-1.13-.29-.62.57-1.44-1.22.48-.64-1.18.19-1.71-3 2.32-3.24 2.45.66 0 .19.13.35.58 1.6.43 2.06 1.3 2.46 2.78 1 .14.28 1.09.78 1.47.14-.19.81.57.64 1-.35.33.31.11-.21.56-.47 1.09-1.71 1.73-1.15 2.38-.66-.27-1.33.41-2.17.31-5.22-.43-6.45-4.18-11.66-7.35-2.5-1-5.9 1.95-6.75 3.44-.66.12-.92 1-1.17.92-.34.14-1 1.08-.69.51-.09.29-.16.21 0-.11s-.19.38-.2.19a.93.93 0 0 1 -.25 0c0 .19-.2.19 0-.18 0 0-.25.22-.12 0 .18-.49-.25.07-.24-.07.25-.59-.25 0 0-.29-.28.4-.35.23-.31-.17 0-.24-.26.28-.3.06 0-.4-.27.07-.21-.32 0-.19-.36.6-.17.11.1-.27-.2.19-.29.33.14-.23 0-.16 0-.2-.27-.06-.06-.16-.34 0 .26-.51-.45.57-.06-.25 0-.17-.24.34-.27.19s.4-.47.12-.26c-.14-.06-.26.13-.1-.25-.25.12-.2.05-.35 0-.25.2.07-.23-.2 0s.17-.25.09-.22c-.28.21 0-.16-.31.07.34-.5-.05-.15 0-.3s-.13 0 0-.14-.26.16-.09-.05-.25-.35-.36-.38c.12-.32-.35-.18-.46-.24s.19-.19.18-.25-.18-.09-.15-.3c-.32.17.06-.3-.38 0 .3-.23.08-.25-.14-.07.16-.28 0-.19-.28-.1.46-.33-.16-.13.28-.42 0-.09-.39-.19 0-.4-.87.56-4.44 2.31-2.94 1.94-.95.63.18-.1 0 .09-.92.59-.13.26.4.08-.41.24.06.24-.38.58.41.1.24-.26 0 .26s.07.13.1.23c-.32.35 0 0 .2 0-.55.49.4-.07.24.24-.2.51-.35.25.06.22-.16.13-.21.31-.17.32s.47 0 .68-.2c-.24.24.14-.1-.25.34-.14.23.43-.31.34-.14s.08.18-.12.31c.52-.38.36-.2.52-.18.14.33.45-.36 0 .35.43-.43.11.11.37-.07.45-.51-.11.29.15.17-.24.45.37 0 .14.55 0 .16.54-.55.39-.23s-.05.64 0 .44c.34-.39-.08.24.15 0 .09.43.08-.32 0 .5.68-.81-.52 1.05.39-.28 0-.14-.17.57-.25.64.25.22.43-.78 0 .17-.08.3.32-.21.39-.3-.31.74-.06.2.17.14s-.06.38.13.15.12-.12 0 .09c-.13 0 .47-.28.44-.38 0 .06-.11.35 0 .15-.13.39.22-.25.1.07-.28.48.16-.15 0 .31.47-.71 0 .31.3-.13-.4 1 .3-.35.06.31q0 .08 0 0c-.17.14-.29.8-.47.76-.67-.14-.44 1-1.09.71-.17.6-.85.66-1.31 1.07.06.51-.13.82-.62.7-.73 1.28-2 2.37-3.07 3.89-.54.78-2.19 1-1.45-.27-1.07.33-1-.58-1.37-.94.79-1.2-.9-1.75-1.16-2.55.83-1.45-4.09 2-3.3 1.5.42-.29.28.5-.08.34-.19.4.63 1.17.95 1.58.81-1.27 0 .52.35.47.37-.22.69.71.74 1.06s1.52-1 1 .12c-.78.89-.09 1.37.37.25 1.24.27.27.56-.5.83-1.17.82 2-.28.39 1 .1.19.8-.41.86-.5.66-.39-.26.71-.58.64-.25.9.6-.17.91 0 .43.84 1.6 2.92 2.4 4.11.69-.09.66.39.81.84.48 0 .82 0 .44.53 1 .57 1.38 1.49 2.45 2.18 1.72 1.49 2.69 3 4.5 4.85s3.48 2.69 5.05 4.42a26 26 0 0 0 4.47 2.54 4.2 4.2 0 0 1 1.53 1.06c.6.27 1.84.27 2.11 1 .67-.47.48.66 1.18.21.41-.5 1.52.2 1.55-.54.21-.06.5.44.77.13 1.75-.61 4.19-1 5.06-2.56 3.09-1 4.83-3.21 6.58-4.78.63-.44.81-1.22 1.77-1.44-.13-.55.2-.69.54-.35.33-.4.53-.82.94-1 1.56-1.07 2.32-2.91 4-3.67.9-1.61 3.81-3.44 4.59-5.58.9-1.2 2.68-2.52 3.16-4.25.07-.39 1-.23.37-.77.22-.3.77-.38.48-.85.41-.49.74-.54.87-1.35.65.15.89-.87 1.12-1.45 1.71-.72-2.17-2.02-2.64-2.2zm-21.83 17.24s-.16-.13-.15-.15a2.09 2.09 0 0 1 .15.15zm-2.77 3.32c-.06 0-.15-.12-.15-.14zm-4.35-6.9a.81.81 0 0 1 .16.17.61.61 0 0 1 -.16-.17zm-2.61 3.32c-.06 0-.15-.12-.15-.15zm14.93-27.93c.06 0-.12.16-.17.12a.53.53 0 0 1 .17-.12zm-4.93 12.43v.2c-.17.04-.16-.17 0-.2zm-24.62-3.7c0-.06.09-.16.12-.17zm2.45 4.69c-.09-.05-.12-.08-.12-.15s.21.21.12.15zm-4.72 8.87c.08 0 .13-.19.21-.07s-.11.12-.21.07zm2.09 2.23s0 0 0 0zm0 0s0 0 0 0zm-.09-.17c-.09-.11 0-.09 0 0zm9.58 8.53c.08 0 0 .08 0 .13s-.07-.28.03-.13zm-.15-.29s0 0 0 0 .01-.01.03 0zm-.76-.1-.67-.66zm-.82-.8-.05-.05zm-1.32-.62c-.07 0 0 .09-.08.14s-.02-.33.08-.14zm-.09-.17s0 0 0 0-.02-.04 0 0zm9.83 6.31c.35.47-.68.54-.22.26-.05-.22-.05-.56.22-.26zm3.23.49c0-.09-.08-.16-.06-.23.04.09.09.16.06.23zm11-7.87c0-.09-.18-.15-.07-.22s.17.11.12.22z"/><path d="m28.72 45.78c-1.73.75-.36.17-1 1.08.35-.34 1-.44.21 0 .14.18.49-.4.59-.25-.16 1.22 1.33 0 3.22-1 1.18-.82-.32 0-.11-.43-.59-.09-.46.08-.18-.32a6.34 6.34 0 0 0 -2.73.92z"/><path d="m43.51 61.24c2.26 1.89-2.5-3.34-2-2.49-.44-.56-.3.33-.21.49-.49-.19-.78.3-1.31.39-.23.11.17.7-.59.57-.35-.07.11.66-.53.44-.37.44-.13.54-.41.5.35.73-.4.42-.3 1.16-.27-.23-.41-.2-.17.12 0 .3-.51-.51-.31-.07-.06.49-.42-.05-.4.39.06.12-.25.15-.14.38s-.36-.21-.16.07c.19.6-.34-.42-.23.26-.1-.05-.15 0-.11 0 .14.37-.31-.23-.26 0-.1.1-.05.32-.33.29-.18.25-.31.07-.61.36 0 .26-.76.64-.7 1.13 0 .29-.21-.2-.38-.12 0 .21-.41.27-.41.42 0 .3-.44 0-.17.48-.68-.47.08.25-.17.18-.44-.23.08.64-.27.24-.28.26-.21.14-.48.12-1.24.26 1.65 2.68 2.32 3.11-.47-.54-.3-.51.13-.08-.55-.91-.24-.14.18-.11-.58-1-.08-.74.54-.73.35.18.42.11.28-.15.19.1.34.26.11 0s.17.08.26 0c-.22-.14-.28-.71 0-.48 0-.14.25.09.41.19-.15-.21-.27-.56 0-.22.17.15-.07-.17.18.06s-.26-.29 0-.2c-.28-.66-.25-.6.19-.4-.5-.68.6.13-.17-.74.35.25.39-.13.22-.43.21.21.66.5.17 0 .24 0 .39 0 0-.43.61.57.27.07.47.09.53.27.12-.45.74-.17.07 0-.47-.56-.21-.46s.7.17.41-.22c.25.18.55.16.16-.19 1 .81-.1-.77.88.36.3.06-1.13-1.15-.13-.38.27.05.47.26.05-.25.42.4.76.44.24-.12.89.48.12.13.23-.17s.21-.15.28-.2c.35.16-.55-.84 0-.45.16-.1 0-.08 0-.26.26.3.51.2.2-.16.45.32.15-.21.58.22.14 0-.56-.7 0-.28.47.13.37-.23.16-.66.39-.08.56.19.68-.22.56.4.21 0 .19-.21.75.49-.06-.23.62.28-.48-1.12.76 0-.16-1.08.32 0 1 1.17.49.24-.21-.34.44.61-.05-.41zm-3.13 3.67c-.05 0-.13-.12-.13-.15zm2.81-2.91s-.15-.14-.14-.16z"/><path d="m45.24 60.28c.95 1-.51-.66 0-.16-.63-.88.68.57.06-.44 0-.43-2.55-3.22-1.35-1.51-.1.15-1.92-2.11-.51-.27-1.06-.83-.18-.39-1-.53.21.43.79 1.09-.1.41.7.93.25.78-.49.23 0 .28-.16.31-.18.41-1-.3 2.16 2.68 2.39 3.07-.49-.65.51.4.47-.24-.89-.77.22.1 0-.22 0-.07-.24-.2-.18-.27.6.48.06-.17.47.14-1-1.27-.19-.45.27-.06-1.56-2.15-.08 0 .11-.14-.53-.84-.19-.29.24 0-.32-.49-1.14-1.38-.2-.42z"/><path d="m51.68 65.82c.71.73-.17-.32-.11-.41 1.07.35-.67-1.3-1.26-2.11-.15 0-.3-.32-.49-.31.2.46.64.65.42.8-1.15-1.39-.64-.69-.61-.46-.25-.24-.79-.77-.31-.19-.12 0-.76-.36 0 .6-.82-.35.07.31-.37.33-1.15-.67-.5.19-1.13.24-.07-.12 3.5 3.68 2.53 2.53-.13-.14.23.13.27.17.3.38.62-.11-.07-.61.46.3.8.55.3 0 .52.26.58 0 0-.46-.47-.68 1.57 1.2.17-.19-1.06-1.32 1.17 1.23.62.41s.35.25.22 0c-.46-.53-1.09-1.22-.18-.34z"/><path d="m49.11 15.39c-.46.62.37.77.9 1.08-1.45.68.48.65-.06 1.26-.2.57-.77.91-.64 1.84.46.78-.26 1.51 1.5 1.22-2.17-.2-1.71.92-1.06 2-.44.38.09 1.24.21 1.7s-.73.7-.2.94c.24 1.51 1.39.48.58 1.27.86.2 2.84.23 3.2-.52-.88-.16.92-2.49-.1-1.56-.79-.59.14-.44.22-1-.08-.24-1.09.68-.48-.09a4 4 0 0 0 -.24-2.08c.53-.23.39-.75.09-.69-.43-.45.66 0 .59-.38-.44-.52.42-1.4-.81-1.08.1-.34.93-.45.51-.68-.8 0 .8-1.37-.73-1.08-1.16-.5 2.2-.53.17-.91-.51.36-.4.21-.8-.15.42-.37.87.12 1.34.1 1.26 0-1.53-.77 0-.72.73-.3-.91-.08-1.07-.21.32-.31 1.56.2 1.26-.42-2 .28 1-1.7-2.87-1.85-1.92.21-.27.48-.14 1.09-.9-.44-2.2.23-.48.27-1.73.48.07.32-.89.65z"/><path d="m55.42 23.05c.12 1 1.11 1.62 3.11 2 .43.21-.2-.76.65-.82.58-.15-1.39-.42.23-.59-1.16-.17.18-.42-.19-1.23 0-.22.53-.1.45-.3-.38-.49-.66-.38.1-.1-.74-.55.14 0 .38-.1-.27-.35.67-.67-.31-.82-.44-.27.53 0 .61-.13s-.71-.37-.22-.31c.31-.05.24-.29.32-.36-.18-.1-1.25-.57-.56-.5a2.29 2.29 0 0 1 .95.29c-.07-.54-1.32-.42-1-.72-.7-.75 2.06 1.3 1 .25-.78-.69 0 0 .38-.13-1.38-.89-.75-.17.12-.26-1.71-.65.39-.36-.6-1.26 0-.34-3.47-2.08-1.72-.65-.35.29-.72-.49-1.41-.45.53.55 1 .7-.18.2.56.7 0 0-.21.45-.37.2.89.71.44.79-1.12-.17.54.8-.42.78-1.5.1-.2 1.34-1.71 1.52.81.94-.16 1 .19 1.89.12.33-.82.15-.4.56z"/><path d="m45.75 21.67c1-1.76-4.66 1.18-3.36 1.63.81-.07.42.8 1.26 1-.06.7-.23.57.5.77.43.49 2.05-.3 3.32-1.48-.41.05-.67-.33-.34-1-.13-.13-.36.49-.77.23.1-.15.72-.6.22-.57-.58.99-.1-.69-.83-.58z"/><path d="m41 19.24c.65 0-.56.1-.24.93.38 0 1.49-.27.46.4.57.06 1.16-.25.65.46-.75 2.23 1.59 1.14 3.87-.12-.89.23.09-.1.17-.35-.46-.13-.12-.85-1-.2.78-1-.09-.05.08-1-.3-.19-1.55.78-.58-.23 1.54-.76-1.6.67-.57-.12.24-.11 1.51-.22 1.06-.53-1.41.47.57-.63-1.31.22 1.42-.91 1-.44.18-.56.52-1.09-1.28-.28-1.67-.14-.72 0-1.91 1.11-.7.62 1.33-.22-1.96 1-.4.62z"/></g></svg>